<svg width="175" height="58" viewBox="0 0 175 58" fill="none" xmlns="http://www.w3.org/2000/svg">
<circle cx="11.5" cy="11.5" r="11.5" fill="#E9C33B"/>
<circle cx="38.5" cy="11.5" r="11.5" fill="#8D7DEB"/>
<ellipse cx="38.5" cy="38" rx="11.5" ry="11" fill="#7CDA74"/>
<circle cx="12" cy="38" r="11" fill="#E76D6D"/>
<g filter="url(#filter0_d)">
<path d="M91.29 15.4316L87.332 19.041L86.6553 18.918C86.3955 17.9609 86.0605 17.0928 85.6504 16.3135C85.2539 15.5205 84.748 14.7959 84.1328 14.1396C83.5312 13.4697 82.7793 12.9502 81.877 12.5811C80.9746 12.2119 79.9629 12.0273 78.8418 12.0273C77.6934 12.0273 76.6338 12.2256 75.6631 12.6221C74.7061 13.0049 73.8926 13.5381 73.2227 14.2217C72.5664 14.8916 71.9922 15.6504 71.5 16.498C71.0078 17.3457 70.6182 18.2617 70.3311 19.2461C70.0576 20.2305 69.8525 21.1875 69.7158 22.1172C69.5928 23.0469 69.5312 23.9697 69.5312 24.8857C69.5312 26.1162 69.6543 27.3398 69.9004 28.5566C70.1465 29.7598 70.5498 30.9492 71.1104 32.125C71.6846 33.3008 72.3818 34.333 73.2021 35.2217C74.0225 36.1104 75.0615 36.8281 76.3193 37.375C77.5771 37.9219 78.9648 38.1953 80.4824 38.1953C83.2578 38.1953 86.4502 37.3135 90.0596 35.5498L90.9414 36.5957C86.9902 39.3711 82.9297 40.7588 78.7598 40.7588C76.5312 40.7588 74.5283 40.4854 72.751 39.9385C70.9736 39.3916 69.5039 38.6602 68.3418 37.7441C67.1934 36.8281 66.2363 35.7344 65.4707 34.4629C64.7051 33.1914 64.1582 31.8652 63.8301 30.4844C63.5156 29.1035 63.3584 27.6406 63.3584 26.0957C63.3584 21.1465 64.8281 17.3389 67.7676 14.6729C69.3809 13.21 71.2471 12.0889 73.3662 11.3096C75.4854 10.5303 77.6934 10.1406 79.9902 10.1406C82.6973 10.1406 84.9531 10.5508 86.7578 11.3711C88.5625 12.1914 90.0732 13.5449 91.29 15.4316ZM94.0176 15.8828C93.4707 15.3359 93.1973 14.6797 93.1973 13.9141C93.1973 13.1484 93.4707 12.499 94.0176 11.9658C94.5645 11.4189 95.2139 11.1455 95.9658 11.1455C96.7178 11.1455 97.3672 11.4189 97.9141 11.9658C98.4609 12.499 98.7344 13.1484 98.7344 13.9141C98.7344 14.6797 98.4609 15.3359 97.9141 15.8828C97.3672 16.416 96.7178 16.6826 95.9658 16.6826C95.2139 16.6826 94.5645 16.416 94.0176 15.8828ZM102.897 34.9961L103.615 35.6729V36.1445C101.223 39.084 99.0352 40.5537 97.0527 40.5537C95.9453 40.5537 95.1045 40.1572 94.5303 39.3643C94.3389 39.1182 94.1885 38.8379 94.0791 38.5234C93.9697 38.1953 93.8809 37.8809 93.8125 37.5801C93.7578 37.2656 93.7236 36.8008 93.71 36.1855C93.6963 35.5566 93.6895 34.9961 93.6895 34.5039C93.6895 34.0117 93.6963 33.2393 93.71 32.1865C93.7236 31.1201 93.7305 30.1699 93.7305 29.3359V24.4141C93.6074 23.0469 93.1221 22.3633 92.2744 22.3633C91.5771 22.3633 90.6064 22.8076 89.3623 23.6963L88.7061 22.7734C89.5264 22.1035 90.2373 21.5566 90.8389 21.1328C91.4541 20.709 92.2129 20.2988 93.1152 19.9023C94.0312 19.4922 94.8652 19.2871 95.6172 19.2871C96.6426 19.2871 97.3467 19.6084 97.7295 20.251C97.9072 20.5654 98.0303 20.9414 98.0986 21.3789C98.1807 21.8164 98.2217 22.6162 98.2217 23.7783C98.2217 24.3389 98.2012 25.1865 98.1602 26.3213C98.1191 27.4561 98.0986 28.3037 98.0986 28.8643C98.0986 29.3154 98.0918 29.8555 98.0781 30.4844C98.0781 31.0996 98.0713 31.5918 98.0576 31.9609C98.0576 32.3301 98.0576 32.7539 98.0576 33.2324C98.0713 33.7109 98.0918 34.0938 98.1191 34.3809C98.1465 34.6543 98.1807 34.9551 98.2217 35.2832C98.2764 35.6113 98.3447 35.8643 98.4268 36.042C98.5225 36.2061 98.6387 36.3701 98.7754 36.5342C98.9121 36.6982 99.0693 36.8145 99.2471 36.8828C99.4385 36.9512 99.6572 36.9854 99.9033 36.9854C100.218 36.9854 100.573 36.8623 100.97 36.6162C101.38 36.3701 101.701 36.1377 101.934 35.9189C102.18 35.7002 102.501 35.3926 102.897 34.9961ZM120.062 22.1172L117.007 25.2139L116.371 25.0498C116.289 24.5303 116.152 24.0312 115.961 23.5527C115.783 23.0742 115.53 22.623 115.202 22.1992C114.888 21.7754 114.478 21.4404 113.972 21.1943C113.466 20.9346 112.898 20.8047 112.27 20.8047C111.354 20.8047 110.663 21.0713 110.198 21.6045C109.747 22.1377 109.521 22.8828 109.521 23.8398C109.521 24.1816 109.583 24.5166 109.706 24.8447C109.843 25.1592 109.993 25.4395 110.157 25.6855C110.335 25.9316 110.588 26.1914 110.916 26.4648C111.258 26.7246 111.545 26.9365 111.777 27.1006C112.023 27.2646 112.365 27.4629 112.803 27.6953C113.254 27.9141 113.582 28.0713 113.787 28.167C113.992 28.2627 114.32 28.4131 114.771 28.6182C115.852 29.1104 116.692 29.5273 117.294 29.8691C117.896 30.1973 118.449 30.5801 118.955 31.0176C119.475 31.4551 119.83 31.9268 120.021 32.4326C120.227 32.9248 120.329 33.5127 120.329 34.1963C120.329 35.249 120.049 36.1992 119.488 37.0469C118.941 37.8945 118.217 38.5713 117.314 39.0771C116.412 39.583 115.435 39.9658 114.382 40.2256C113.343 40.499 112.283 40.6357 111.203 40.6357C108.059 40.6357 105.639 39.6992 103.943 37.8262L106.589 33.8682L107.225 33.9092C107.416 34.6201 107.614 35.2354 107.819 35.7549C108.038 36.2744 108.332 36.8145 108.701 37.375C109.07 37.9219 109.542 38.3457 110.116 38.6465C110.69 38.9336 111.36 39.0771 112.126 39.0771C113.083 39.0771 113.903 38.7969 114.587 38.2363C115.271 37.6621 115.612 36.917 115.612 36.001C115.612 35.3174 115.291 34.6748 114.648 34.0732C114.334 33.7861 113.862 33.4717 113.233 33.1299C112.604 32.7881 111.962 32.4736 111.306 32.1865C110.663 31.8857 109.979 31.5303 109.255 31.1201C108.544 30.6963 107.915 30.2656 107.368 29.8281C106.821 29.377 106.363 28.8301 105.994 28.1875C105.639 27.5312 105.461 26.834 105.461 26.0957C105.461 24.9473 105.687 23.9219 106.138 23.0195C106.603 22.1172 107.225 21.3994 108.004 20.8662C108.797 20.333 109.686 19.9297 110.67 19.6562C111.654 19.3828 112.7 19.2461 113.808 19.2461C115.284 19.2461 116.556 19.4512 117.622 19.8613C118.702 20.2578 119.516 21.0098 120.062 22.1172ZM126.399 15.3086L130.891 13.791L131.526 14.0781C131.526 14.0781 131.492 14.4609 131.424 15.2266C131.369 16.0059 131.301 16.9697 131.219 18.1182C131.137 19.2529 131.068 20.2031 131.014 20.9688L131.321 21.3174H136.571L136.858 21.7275L136.428 22.8145L135.936 23.2041H131.321L130.973 23.5322V30.2178C130.973 30.8057 130.973 31.25 130.973 31.5508C130.986 31.8379 131 32.2344 131.014 32.7402C131.027 33.2461 131.055 33.6357 131.096 33.9092C131.137 34.1689 131.191 34.4902 131.26 34.873C131.328 35.2559 131.417 35.5498 131.526 35.7549C131.649 35.9463 131.786 36.1514 131.937 36.3701C132.101 36.5752 132.292 36.7188 132.511 36.8008C132.743 36.8828 133.003 36.9238 133.29 36.9238C134.343 36.9238 135.478 36.3701 136.694 35.2627H137.104L137.617 35.8779C135.279 38.9404 132.969 40.4717 130.686 40.4717C130.125 40.4717 129.626 40.3896 129.188 40.2256C128.751 40.0752 128.389 39.8838 128.102 39.6514C127.814 39.4189 127.568 39.0977 127.363 38.6875C127.172 38.2637 127.021 37.8809 126.912 37.5391C126.803 37.1836 126.721 36.7188 126.666 36.1445C126.611 35.5566 126.577 35.0713 126.563 34.6885C126.563 34.3057 126.563 33.793 126.563 33.1504V23.5732L126.194 23.2041H121.56L121.313 22.8555L121.744 21.6455L122.195 21.3584H126.235L126.522 20.9688C126.509 20.3262 126.488 19.54 126.461 18.6104C126.447 17.667 126.434 16.8809 126.42 16.252L126.399 15.3086ZM145.533 11.2275L145.185 30.2998C145.185 30.4775 145.178 30.7715 145.164 31.1816C145.15 31.5781 145.144 31.8857 145.144 32.1045C145.144 32.7607 145.15 33.3076 145.164 33.7451C145.191 34.1689 145.232 34.5859 145.287 34.9961C145.355 35.4062 145.444 35.7275 145.554 35.96C145.677 36.1924 145.834 36.377 146.025 36.5137C146.217 36.6504 146.456 36.7188 146.743 36.7188C147.673 36.7188 148.712 36.0898 149.86 34.832H150.353L151.029 35.5088C148.637 38.6943 146.354 40.2871 144.18 40.2871C143.797 40.2871 143.441 40.2461 143.113 40.1641C142.799 40.0957 142.525 40.0068 142.293 39.8975C142.061 39.7881 141.849 39.6309 141.657 39.4258C141.479 39.2207 141.329 39.0361 141.206 38.8721C141.097 38.6943 141.001 38.4551 140.919 38.1543C140.837 37.8398 140.775 37.5801 140.734 37.375C140.693 37.1699 140.659 36.8896 140.632 36.5342C140.618 36.165 140.611 35.8779 140.611 35.6729C140.611 35.4678 140.611 35.1738 140.611 34.791C140.611 33.752 140.639 32.1455 140.693 29.9717C140.748 27.7979 140.775 26.1299 140.775 24.9678C140.775 21.7822 140.762 19.417 140.734 17.8721C140.666 15.7119 140.598 14.4951 140.529 14.2217C140.488 14.0576 140.434 13.9141 140.365 13.791C140.311 13.6543 140.222 13.5381 140.099 13.4424C139.989 13.3467 139.887 13.2646 139.791 13.1963C139.709 13.1279 139.572 13.0732 139.381 13.0322C139.203 12.9775 139.06 12.9365 138.95 12.9092C138.854 12.8818 138.684 12.8613 138.438 12.8477C138.191 12.8203 138.014 12.8066 137.904 12.8066C137.809 12.793 137.617 12.7793 137.33 12.7656C137.043 12.752 136.852 12.7451 136.756 12.7451V11.7812L137.248 11.4326L144.979 10.7354L145.533 11.2275ZM170.676 19.5537C170.594 21.0303 170.546 22.4453 170.532 23.7988C170.519 25.1523 170.512 28.6318 170.512 34.2373C170.512 37.3408 170.3 39.7539 169.876 41.4766C169.507 43.1035 168.68 44.5527 167.395 45.8242C166.123 47.1094 164.64 48.0801 162.944 48.7363C161.263 49.4062 159.554 49.7412 157.817 49.7412C156.614 49.7412 155.384 49.4609 154.126 48.9004C152.868 48.3535 151.863 47.6426 151.111 46.7676L153.634 43.4453H154.516C156.102 46.248 157.838 47.6494 159.725 47.6494C160.873 47.6494 161.844 47.3965 162.637 46.8906C163.443 46.3848 164.059 45.6533 164.482 44.6963C164.92 43.7393 165.234 42.707 165.426 41.5996C165.617 40.4922 165.727 39.2002 165.754 37.7236L165.344 37.5596C164.086 38.3799 162.732 39.0703 161.283 39.6309C159.848 40.1914 158.556 40.4717 157.407 40.4717C156.901 40.4717 156.437 40.4238 156.013 40.3281C155.603 40.2324 155.24 40.1162 154.926 39.9795C154.625 39.8291 154.358 39.6172 154.126 39.3438C153.894 39.0566 153.702 38.8037 153.552 38.585C153.401 38.3525 153.271 38.0244 153.162 37.6006C153.053 37.1768 152.971 36.8281 152.916 36.5547C152.861 36.2676 152.82 35.8643 152.793 35.3447C152.779 34.8115 152.766 34.4014 152.752 34.1143C152.752 33.8271 152.752 33.3965 152.752 32.8223C152.752 32.7266 152.752 32.6582 152.752 32.6172C152.752 31.9062 152.793 30.8262 152.875 29.377C152.957 27.9277 152.998 26.8477 152.998 26.1367C152.998 25.8359 152.998 25.624 152.998 25.501C152.998 25.3643 152.984 25.1455 152.957 24.8447C152.943 24.5303 152.916 24.291 152.875 24.127C152.834 23.9629 152.766 23.7578 152.67 23.5117C152.574 23.2656 152.465 23.0811 152.342 22.958C152.219 22.835 152.055 22.7256 151.85 22.6299C151.645 22.5342 151.412 22.4863 151.152 22.4863C150.51 22.4863 149.696 22.917 148.712 23.7783L147.953 22.7324C150.469 20.5586 152.766 19.4717 154.844 19.4717C155.568 19.4717 156.197 19.7178 156.73 20.21C156.99 20.4424 157.182 20.8115 157.305 21.3174C157.428 21.8096 157.489 22.6641 157.489 23.8809C157.489 24.7012 157.455 25.918 157.387 27.5312C157.318 29.1445 157.284 30.3887 157.284 31.2637C157.284 33.5742 157.544 35.1807 158.063 36.083C158.583 36.9854 159.595 37.4365 161.099 37.4365C161.851 37.4365 162.691 37.2314 163.621 36.8213C164.564 36.4111 165.296 36.0283 165.815 35.6729C166.007 33.3896 166.103 30.8125 166.103 27.9414C166.103 25.2344 165.973 22.8691 165.713 20.8457L169.917 19.3691L170.676 19.5537Z" fill="white"/>
</g>
<defs>
<filter id="filter0_d" x="59.3584" y="10.1406" width="115.317" height="47.6006" filterUnits="userSpaceOnUse" color-interpolation-filters="sRGB">
<feFlood flood-opacity="0" result="BackgroundImageFix"/>
<feColorMatrix in="SourceAlpha" type="matrix" values="0 0 0 0 0 0 0 0 0 0 0 0 0 0 0 0 0 0 127 0"/>
<feOffset dy="4"/>
<feGaussianBlur stdDeviation="2"/>
<feColorMatrix type="matrix" values="0 0 0 0 0 0 0 0 0 0 0 0 0 0 0 0 0 0 0.25 0"/>
<feBlend mode="normal" in2="BackgroundImageFix" result="effect1_dropShadow"/>
<feBlend mode="normal" in="SourceGraphic" in2="effect1_dropShadow" result="shape"/>
</filter>
</defs>
</svg>
